<?xml version="1.0" encoding="utf-8"?>
<svg xmlns="http://www.w3.org/2000/svg" style="margin: auto; background: none; display: block; shape-rendering: auto; animation-play-state: running; animation-delay: 0s;" width="168" height="80" preserveAspectRatio="xMidYMid">
<style type="text/css" style="animation-play-state: running; animation-delay: 0s;">
  text {
    text-anchor: middle; font-size: 30px; opacity: 0;
  }
</style>
<g style="transform-origin: 84px 40px; transform: scale(1); animation-play-state: running; animation-delay: 0s;">
<g transform="translate(84,40)" style="animation-play-state: running; animation-delay: 0s;">
  <g transform="translate(0,0)" style="animation-play-state: running; animation-delay: 0s;"><g class="path" style="opacity: 1; transform-origin: -59.055px -2.7564px; animation: 1.66667s linear -0.977778s infinite normal forwards running fade-89f7738a-ab1c-47c3-aaa6-887f235bb233;"><path d="M17.61-0.90L14.94 0.36L12.33-5.34L12.33-5.34Q11.34-7.47 9.84-8.37L9.84-8.37L9.84-8.37Q8.34-9.27 6-9.27L6-9.27L5.55-9.27L5.55 0L2.70 0L2.70-20.94L2.70-20.94Q4.32-21.09 5.75-21.16L5.75-21.16L5.75-21.16Q7.17-21.24 8.85-21.24L8.85-21.24L8.85-21.24Q10.77-21.24 12.21-20.84L12.21-20.84L12.21-20.84Q13.65-20.43 14.61-19.68L14.61-19.68L14.61-19.68Q15.57-18.93 16.06-17.91L16.06-17.91L16.06-17.91Q16.56-16.89 16.56-15.66L16.56-15.66L16.56-15.66Q16.56-13.47 15.25-12.13L15.25-12.13L15.25-12.13Q13.95-10.80 11.49-10.14L11.49-10.14L11.49-10.14Q12.09-9.87 12.60-9.53L12.60-9.53L12.60-9.53Q13.11-9.18 13.56-8.69L13.56-8.69L13.56-8.69Q14.01-8.19 14.45-7.50L14.45-7.50L14.45-7.50Q14.88-6.81 15.33-5.82L15.33-5.82L17.61-0.90zM8.85-18.84L8.85-18.84L8.85-18.84Q7.83-18.84 7.02-18.81L7.02-18.81L7.02-18.81Q6.21-18.78 5.55-18.72L5.55-18.72L5.55-11.67L8.85-11.67L8.85-11.67Q11.01-11.67 12.36-12.63L12.36-12.63L12.36-12.63Q13.71-13.59 13.71-15.39L13.71-15.39L13.71-15.39Q13.71-16.89 12.45-17.86L12.45-17.86L12.45-17.86Q11.19-18.84 8.85-18.84" fill="#5964e0" stroke="none" stroke-width="none" transform="translate(-69.20999145507812,7.683596819771651)" style="fill: rgb(89, 100, 224); animation-play-state: running; animation-delay: 0s;"></path></g><g class="path" style="opacity: 1; transform-origin: -42.465px -0.116404px; animation: 1.66667s linear -0.855556s infinite normal forwards running fade-89f7738a-ab1c-47c3-aaa6-887f235bb233;"><path d="M33.54-6.69L22.62-6.69L22.62-6.69Q22.89-4.50 24.15-3.27L24.15-3.27L24.15-3.27Q25.41-2.04 27.48-2.04L27.48-2.04L27.48-2.04Q28.83-2.04 29.91-2.32L29.91-2.32L29.91-2.32Q30.99-2.61 31.98-3.06L31.98-3.06L32.61-0.75L32.61-0.75Q31.53-0.24 30.18 0.06L30.18 0.06L30.18 0.06Q28.83 0.36 27.15 0.36L27.15 0.36L27.15 0.36Q25.47 0.36 24.12-0.20L24.12-0.20L24.12-0.20Q22.77-0.75 21.82-1.78L21.82-1.78L21.82-1.78Q20.88-2.82 20.37-4.33L20.37-4.33L20.37-4.33Q19.86-5.85 19.86-7.80L19.86-7.80L19.86-7.80Q19.86-9.54 20.37-11.04L20.37-11.04L20.37-11.04Q20.88-12.54 21.81-13.63L21.81-13.63L21.81-13.63Q22.74-14.73 24.03-15.34L24.03-15.34L24.03-15.34Q25.32-15.96 26.91-15.96L26.91-15.96L26.91-15.96Q28.59-15.96 29.85-15.39L29.85-15.39L29.85-15.39Q31.11-14.82 31.95-13.83L31.95-13.83L31.95-13.83Q32.79-12.84 33.21-11.52L33.21-11.52L33.21-11.52Q33.63-10.20 33.63-8.73L33.63-8.73L33.63-8.73Q33.63-7.68 33.54-6.69L33.54-6.69zM26.85-13.62L26.85-13.62L26.85-13.62Q25.08-13.62 23.95-12.42L23.95-12.42L23.95-12.42Q22.83-11.22 22.59-8.88L22.59-8.88L31.14-8.88L31.14-8.88Q31.14-11.16 30-12.39L30-12.39L30-12.39Q28.86-13.62 26.85-13.62" fill="#5964e0" stroke="none" stroke-width="none" transform="translate(-69.20999145507812,7.683596819771651)" style="fill: rgb(145, 167, 255); animation-play-state: running; animation-delay: 0s;"></path></g><g class="path" style="opacity: 1; transform-origin: -26.385px -0.266402px; animation: 1.66667s linear -0.733333s infinite normal forwards running fade-89f7738a-ab1c-47c3-aaa6-887f235bb233;"><path d="M41.40 0L35.13-14.88L37.59-15.90L42.90-3.06L48.21-15.90L50.52-14.88L44.22 0L41.40 0" fill="#5964e0" stroke="none" stroke-width="none" transform="translate(-69.20999145507812,7.683596819771651)" style="fill: rgb(89, 100, 224); animation-play-state: running; animation-delay: 0s;"></path></g><g class="path" style="opacity: 1; transform-origin: -14.64px -0.116403px; animation: 1.66667s linear -0.611111s infinite normal forwards running fade-89f7738a-ab1c-47c3-aaa6-887f235bb233;"><path d="M55.92-15.60L55.92 0L53.22 0L53.22-15.60L55.92-15.60" fill="#5964e0" stroke="none" stroke-width="none" transform="translate(-69.20999145507812,7.683596819771651)" style="fill: rgb(145, 167, 255); animation-play-state: running; animation-delay: 0s;"></path></g><g class="path" style="opacity: 1; transform-origin: -14.64px -12.4764px; animation: 1.66667s linear -0.488889s infinite normal forwards running fade-89f7738a-ab1c-47c3-aaa6-887f235bb233;"><path d="M54.57-18.27L54.57-18.27L54.57-18.27Q53.79-18.27 53.23-18.82L53.23-18.82L53.23-18.82Q52.68-19.38 52.68-20.16L52.68-20.16L52.68-20.16Q52.68-21.03 53.19-21.54L53.19-21.54L53.19-21.54Q53.70-22.05 54.57-22.05L54.57-22.05L54.57-22.05Q55.35-22.05 55.91-21.49L55.91-21.49L55.91-21.49Q56.46-20.94 56.46-20.16L56.46-20.16L56.46-20.16Q56.46-19.29 55.95-18.78L55.95-18.78L55.95-18.78Q55.44-18.27 54.57-18.27" fill="#5964e0" stroke="none" stroke-width="none" transform="translate(-69.20999145507812,7.683596819771651)" style="fill: rgb(89, 100, 224); animation-play-state: running; animation-delay: 0s;"></path></g><g class="path" style="opacity: 1; transform-origin: -2.65499px -0.116404px; animation: 1.66667s linear -0.366667s infinite normal forwards running fade-89f7738a-ab1c-47c3-aaa6-887f235bb233;"><path d="M73.35-6.69L62.43-6.69L62.43-6.69Q62.70-4.50 63.96-3.27L63.96-3.27L63.96-3.27Q65.22-2.04 67.29-2.04L67.29-2.04L67.29-2.04Q68.64-2.04 69.72-2.32L69.72-2.32L69.72-2.32Q70.80-2.61 71.79-3.06L71.79-3.06L72.42-0.75L72.42-0.75Q71.34-0.24 69.99 0.06L69.99 0.06L69.99 0.06Q68.64 0.36 66.96 0.36L66.96 0.36L66.96 0.36Q65.28 0.36 63.93-0.20L63.93-0.20L63.93-0.20Q62.58-0.75 61.63-1.78L61.63-1.78L61.63-1.78Q60.69-2.82 60.18-4.33L60.18-4.33L60.18-4.33Q59.67-5.85 59.67-7.80L59.67-7.80L59.67-7.80Q59.67-9.54 60.18-11.04L60.18-11.04L60.18-11.04Q60.69-12.54 61.62-13.63L61.62-13.63L61.62-13.63Q62.55-14.73 63.84-15.34L63.84-15.34L63.84-15.34Q65.13-15.96 66.72-15.96L66.72-15.96L66.72-15.96Q68.40-15.96 69.66-15.39L69.66-15.39L69.66-15.39Q70.92-14.82 71.76-13.83L71.76-13.83L71.76-13.83Q72.60-12.84 73.02-11.52L73.02-11.52L73.02-11.52Q73.44-10.20 73.44-8.73L73.44-8.73L73.44-8.73Q73.44-7.68 73.35-6.69L73.35-6.69zM66.66-13.62L66.66-13.62L66.66-13.62Q64.89-13.62 63.77-12.42L63.77-12.42L63.77-12.42Q62.64-11.22 62.40-8.88L62.40-8.88L70.95-8.88L70.95-8.88Q70.95-11.16 69.81-12.39L69.81-12.39L69.81-12.39Q68.67-13.62 66.66-13.62" fill="#5964e0" stroke="none" stroke-width="none" transform="translate(-69.20999145507812,7.683596819771651)" style="fill: rgb(145, 167, 255); animation-play-state: running; animation-delay: 0s;"></path></g><g class="path" style="opacity: 1; transform-origin: 17.7px -0.191402px; animation: 1.66667s linear -0.244444s infinite normal forwards running fade-89f7738a-ab1c-47c3-aaa6-887f235bb233;"><path d="M92.04-3.06L96.03-15.75L98.43-14.88L93.48 0L90.51 0L86.91-11.61L83.28 0L80.31 0L75.39-14.88L77.88-15.75L81.90-3.06L85.56-14.49L88.47-14.49L92.04-3.06" fill="#5964e0" stroke="none" stroke-width="none" transform="translate(-69.20999145507812,7.683596819771651)" style="fill: rgb(89, 100, 224); animation-play-state: running; animation-delay: 0s;"></path></g><g class="path" style="opacity: 1; transform-origin: 49.02px -2.6364px; animation: 1.66667s linear -0.122222s infinite normal forwards running fade-89f7738a-ab1c-47c3-aaa6-887f235bb233;"><path d="M123.27-8.43L123.27-21L126.03-21L126.03-8.10L126.03-8.10Q126.03-6.12 125.48-4.54L125.48-4.54L125.48-4.54Q124.92-2.97 123.89-1.88L123.89-1.88L123.89-1.88Q122.85-0.78 121.41-0.21L121.41-0.21L121.41-0.21Q119.97 0.36 118.20 0.36L118.20 0.36L118.20 0.36Q114.54 0.36 112.49-1.78L112.49-1.78L112.49-1.78Q110.43-3.93 110.43-7.98L110.43-7.98L110.43-21L113.28-21L113.28-8.43L113.28-8.43Q113.28-5.40 114.50-3.76L114.50-3.76L114.50-3.76Q115.71-2.13 118.20-2.13L118.20-2.13L118.20-2.13Q120.75-2.13 122.01-3.73L122.01-3.73L122.01-3.73Q123.27-5.34 123.27-8.43L123.27-8.43" fill="#5964e0" stroke="none" stroke-width="none" transform="translate(-69.20999145507812,7.683596819771651)" style="fill: rgb(145, 167, 255); animation-play-state: running; animation-delay: 0s;"></path></g><g class="path" style="opacity: 1; transform-origin: 66.015px -0.116404px; animation: 1.66667s linear 0s infinite normal forwards running fade-89f7738a-ab1c-47c3-aaa6-887f235bb233;"><path d="M129.33-1.26L130.47-3.51L130.47-3.51Q131.25-2.82 132.44-2.40L132.44-2.40L132.44-2.40Q133.62-1.98 134.97-1.98L134.97-1.98L134.97-1.98Q136.65-1.98 137.50-2.53L137.50-2.53L137.50-2.53Q138.36-3.09 138.36-3.96L138.36-3.96L138.36-3.96Q138.36-4.41 138.19-4.80L138.19-4.80L138.19-4.80Q138.03-5.19 137.59-5.55L137.59-5.55L137.59-5.55Q137.16-5.91 136.41-6.25L136.41-6.25L136.41-6.25Q135.66-6.60 134.46-7.02L134.46-7.02L134.46-7.02Q132.24-7.77 131.16-8.80L131.16-8.80L131.16-8.80Q130.08-9.84 130.08-11.67L130.08-11.67L130.08-11.67Q130.08-12.57 130.49-13.35L130.49-13.35L130.49-13.35Q130.89-14.13 131.66-14.71L131.66-14.71L131.66-14.71Q132.42-15.30 133.51-15.63L133.51-15.63L133.51-15.63Q134.61-15.96 136.02-15.96L136.02-15.96L136.02-15.96Q137.55-15.96 138.71-15.64L138.71-15.64L138.71-15.64Q139.86-15.33 140.79-14.85L140.79-14.85L140.04-12.63L140.04-12.63Q139.23-13.11 138.19-13.41L138.19-13.41L138.19-13.41Q137.16-13.71 135.90-13.71L135.90-13.71L135.90-13.71Q134.34-13.71 133.53-13.08L133.53-13.08L133.53-13.08Q132.72-12.45 132.72-11.70L132.72-11.70L132.72-11.70Q132.72-11.34 132.85-11.04L132.85-11.04L132.85-11.04Q132.99-10.74 133.35-10.47L133.35-10.47L133.35-10.47Q133.71-10.20 134.31-9.93L134.31-9.93L134.31-9.93Q134.91-9.66 135.81-9.36L135.81-9.36L135.81-9.36Q137.28-8.85 138.30-8.32L138.30-8.32L138.30-8.32Q139.32-7.80 139.95-7.17L139.95-7.17L139.95-7.17Q140.58-6.54 140.85-5.80L140.85-5.80L140.85-5.80Q141.12-5.07 141.12-4.17L141.12-4.17L141.12-4.17Q141.12-3.12 140.67-2.28L140.67-2.28L140.67-2.28Q140.22-1.44 139.41-0.85L139.41-0.85L139.41-0.85Q138.60-0.27 137.44 0.04L137.44 0.04L137.44 0.04Q136.29 0.36 134.88 0.36L134.88 0.36L134.88 0.36Q133.08 0.36 131.67-0.09L131.67-0.09L131.67-0.09Q130.26-0.54 129.33-1.26L129.33-1.26" fill="#5964e0" stroke="none" stroke-width="none" transform="translate(-69.20999145507812,7.683596819771651)" style="fill: rgb(89, 100, 224); animation-play-state: running; animation-delay: 0s;"></path></g></g>
</g>
</g>
<style id="fade-89f7738a-ab1c-47c3-aaa6-887f235bb233" data-anikit="">@keyframes fade-89f7738a-ab1c-47c3-aaa6-887f235bb233
{
  0% {
    animation-timing-function: cubic-bezier(0.2057,0.573,0.3723,0.9184);
    opacity: 1;
  }
  100% {
    opacity: 0;
  }
}</style></svg>